<svg width="64" height="64" xmlns="http://www.w3.org/2000/svg">

 <g>
  <title>background</title>
  <rect fill="none" id="canvas_background" height="402" width="582" y="-1" x="-1"/>
 </g>
 <g>
  <title>Layer 1</title>
  <path fill="#ffffff" id="svg_1" d="m21,53.6c-0.2,2.6 1.1,5.1 3.5,6.5c3.1,1.8 6.9,1 9,-1.7c-4.2,-1 -8.3,-2.5 -12.5,-4.8z"/>
  <path opacity="0" fill="#000000" id="svg_2" d="m37.8,55.3c0,0 -2.5,-5.1 -1.9,-8.1c0.6,-3.1 6.2,-12.6 7.4,-15.4c1.2,-2.8 2.9,-8.6 -0.8,-11.9s-9.8,-4.5 -11.9,-3.3c-2.1,1.2 -9.3,12.1 -11.2,15.1s-5.6,5.6 -8,5.9s-4,1.1 -3.1,2.1s3.1,5.3 9.3,9.1s17.9,8 20.2,6.5z" class="transparent"/>
  <path fill="#ffffff" id="svg_3" d="m39.115381,52.723076c-1.6,-3.2 -1.8,-6.8 1.7,-12.9l4.3,-7.4c2.8,-4.9 1.7,-10.9 -2.5,-14.5l0.8,-1.4c2.2,0.3 4.4,-0.7 5.6,-2.7c1.5,-2.6 0.6,-6 -2,-7.5s-6,-0.6 -7.5,2c-1.2,2 -0.9,4.5 0.5,6.2l-0.8,1.4c-5.1,-1.8 -10.9,0.2 -13.8,5.1l-4.3,7.4c-3.5,6.1 -6.7,7.7 -10.3,7.9c0,0 -5.8,0.1 -2.5,4.3s7.2,7.6 12.4,10.6l0.6,0.4c5.2,3 10,4.6 15.4,5.4s2.4,-4.3 2.4,-4.3zm2.1,-43.2c1,-1.7 3.1,-2.2 4.8,-1.3s2.2,3.1 1.3,4.8c-0.6,1 -1.6,1.6 -2.7,1.7c0.5,-0.9 0.1,-2.1 -0.8,-2.6c-0.9,-0.5 -2.1,-0.2 -2.7,0.6c-0.5,-1 -0.5,-2.2 0.1,-3.2zm-7.1,44.9c-4.2,-0.7 -7.9,-2 -12,-4.3l-0.5,-0.4c-4.1,-2.3 -7.1,-5 -9.8,-8.2c-2.6,-3.2 1.9,-3.2 1.9,-3.2c2.8,-0.1 5.2,-1.2 7.8,-5.8l6,-10.4c2.2,-3.6 6.6,-5.1 10.6,-3.6l2.7,1.6c3.3,2.8 4.3,7.3 2.2,11l-6,10.4c-2.6,4.5 -2.4,7.3 -1.1,9.7c0,0 2.4,3.9 -1.8,3.2z"/>
 </g>
</svg>