<svg width="128" height="128" xmlns="http://www.w3.org/2000/svg">

 <g>
  <title>background</title>
  <rect fill="none" id="canvas_background" height="402" width="582" y="-1" x="-1"/>
 </g>
 <g>
  <title>Layer 1</title>
  <path fill="#ffffff" id="svg_1" d="m107.6,53.8l-3.9,0c-3.2,0 -5.9,-2.8 -5.9,-6c0,-1.7 0.7,-3.2 1.9,-4.3l2.5,-2.5c2.5,-2.5 2.5,-6.5 0,-9l-5.8,-5.7c-1.1,-1.1 -2.8,-1.8 -4.5,-1.8s-3.4,0.7 -4.5,1.8l-2.4,2.4c-1.2,1.3 -2.7,2 -4.4,2c-3.3,0 -6.1,-2.7 -6.1,-5.9l0,-4c0,-3.5 -2.8,-6.5 -6.3,-6.5l-7.9,0c-3.5,0 -6.3,3 -6.3,6.5l0,3.9c0,3.2 -2.8,5.9 -6.1,5.9c-1.7,0 -3.2,-0.7 -4.3,-1.9l-2.5,-2.5c-1.1,-1.2 -2.8,-1.8 -4.5,-1.8s-3.4,0.7 -4.5,1.8l-5.8,5.7c-2.5,2.5 -2.5,6.5 0,9l2.4,2.4c1.3,1.2 2,2.7 2,4.4c0,3.3 -2.7,6 -5.9,6l-3.9,0c-3.5,0 -6.5,2.8 -6.5,6.3l0,4l0,3.9c0,3.5 3,6.3 6.5,6.3l3.9,0c3.2,0 5.9,2.8 5.9,6c0,1.7 -0.7,3.2 -2,4.4l-2.4,2.4c-2.5,2.5 -2.5,6.5 0,9l5.8,5.7c1.1,1.2 2.8,1.8 4.5,1.8c1.7,0 3.4,-0.7 4.5,-1.8l2.5,-2.5c1.1,-1.2 2.6,-1.9 4.3,-1.9c3.3,0 6.1,2.7 6.1,5.9l0,3.9c0,3.5 2.8,6.5 6.3,6.5l7.9,0c3.5,0 6.3,-3 6.3,-6.5l0,-3.9c0,-3.2 2.8,-5.9 6.1,-5.9c1.7,0 3.2,0.7 4.4,2l2.4,2.4c1.2,1.1 2.8,1.8 4.5,1.8s3.4,-0.7 4.5,-1.8l5.8,-5.7c2.5,-2.5 2.5,-6.5 0,-9l-2.5,-2.5c-1.2,-1.1 -1.9,-2.6 -1.9,-4.3c0,-3.3 2.7,-6 5.9,-6l3.9,0c3.5,0 6,-2.8 6,-6.3l0,-4l0,-3.9c0,-3.5 -2.5,-6.2 -6,-6.2zm-22.7,10.2l0,0c0,11.4 -9.2,20.7 -20.7,20.7s-20.6,-9.3 -20.6,-20.7l0,0l0,0c0,-11.4 9.2,-20.7 20.7,-20.7s20.6,9.3 20.6,20.7l0,0z"/>
 </g>
</svg>