<svg width="128" height="128" xmlns="http://www.w3.org/2000/svg">

 <g>
  <title>background</title>
  <rect fill="none" id="canvas_background" height="402" width="582" y="-1" x="-1"/>
 </g>
 <g>
  <title>Layer 1</title>
  <path fill="#ffffff" id="svg_1" d="m95.3,31c-11.5,-11.6 -30.3,-11.6 -41.9,0c-11.1,11.1 -11.5,28.8 -1.3,40.5l-7.7,7.7l-1,-1c-1.2,-1.2 -3.2,-1.2 -4.4,0l-17.8,17.8c-2.4,2.4 -2.4,6.3 0,8.7l0,0c2.4,2.4 6.3,2.4 8.7,0l17.9,-17.9c1.2,-1.2 1.2,-3.2 0,-4.4l-0.6,-0.6l7.7,-7.7c11.6,10.2 29.4,9.8 40.5,-1.3c11.5,-11.5 11.5,-30.3 -0.1,-41.8zm-2.7,39.1c-10.1,10.1 -26.4,10.1 -36.4,0c-10.1,-10.1 -10.1,-26.4 0,-36.4c10.1,-10.1 26.4,-10.1 36.4,0c10.1,10 10.1,26.4 0,36.4z"/>
 </g>
</svg>